<?xml version="1.0" encoding="UTF-8" standalone="no"?>
<!DOCTYPE svg PUBLIC "-//W3C//DTD SVG 1.1//EN"
 "http://www.w3.org/Graphics/SVG/1.1/DTD/svg11.dtd">
<!-- Generated by graphviz version 2.38.0 (20140413.2041)
 -->
<!-- Title: FSM Pages: 1 -->
<svg width="360pt" height="42pt"
 viewBox="0.00 0.00 360.00 41.92" xmlns="http://www.w3.org/2000/svg" xmlns:xlink="http://www.w3.org/1999/xlink">
<g id="graph0" class="graph" transform="scale(0.261029 0.261029) rotate(0) translate(4 156.596)">
<title>FSM</title>
<polygon fill="white" stroke="none" points="-4,4 -4,-156.596 1375.16,-156.596 1375.16,4 -4,4"/>
<!-- 0 -->
<g id="node1" class="node"><title>0</title>
<ellipse fill="none" stroke="black" stroke-width="2" cx="20.7982" cy="-74.7982" rx="18" ry="18"/>
<text text-anchor="middle" x="20.7982" y="-71.0982" font-family="Helvetica,sans-Serif" font-size="14.00">0</text>
</g>
<!-- 13 -->
<g id="node2" class="node"><title>13</title>
<ellipse fill="none" stroke="black" cx="111.394" cy="-103.798" rx="20.5982" ry="20.5982"/>
<text text-anchor="middle" x="111.394" y="-100.098" font-family="Helvetica,sans-Serif" font-size="14.00">13</text>
</g>
<!-- 0&#45;&gt;13 -->
<g id="edge1" class="edge"><title>0&#45;&gt;13</title>
<path fill="none" stroke="black" d="M38.0481,-80.1172C50.3058,-84.1295 67.431,-89.735 81.9428,-94.4852"/>
<polygon fill="black" stroke="black" points="80.8874,-97.8224 91.48,-97.6069 83.065,-91.1697 80.8874,-97.8224"/>
<text text-anchor="middle" x="66.0963" y="-96.5982" font-family="Helvetica,sans-Serif" font-size="14.00">u:u</text>
</g>
<!-- 15 -->
<g id="node3" class="node"><title>15</title>
<ellipse fill="none" stroke="black" cx="312.587" cy="-74.7982" rx="20.5982" ry="20.5982"/>
<text text-anchor="middle" x="312.587" y="-71.0982" font-family="Helvetica,sans-Serif" font-size="14.00">15</text>
</g>
<!-- 0&#45;&gt;15 -->
<g id="edge2" class="edge"><title>0&#45;&gt;15</title>
<path fill="none" stroke="black" d="M39.0444,-74.4781C52.9589,-74.2365 73.0371,-73.9258 90.5963,-73.7982 150.236,-73.3647 165.149,-73.4546 224.789,-73.7982 243.579,-73.9064 264.656,-74.1464 281.335,-74.3642"/>
<polygon fill="black" stroke="black" points="281.546,-77.8672 291.592,-74.5025 281.64,-70.8679 281.546,-77.8672"/>
<text text-anchor="middle" x="157.693" y="-77.5982" font-family="Helvetica,sans-Serif" font-size="14.00">ε:ε</text>
</g>
<!-- 14 -->
<g id="node16" class="node"><title>14</title>
<ellipse fill="none" stroke="black" cx="203.991" cy="-103.798" rx="20.5982" ry="20.5982"/>
<text text-anchor="middle" x="203.991" y="-100.098" font-family="Helvetica,sans-Serif" font-size="14.00">14</text>
</g>
<!-- 13&#45;&gt;14 -->
<g id="edge15" class="edge"><title>13&#45;&gt;14</title>
<path fill="none" stroke="black" d="M131.331,-110.278C136.42,-111.732 141.964,-113.062 147.193,-113.798 156.435,-115.1 158.95,-115.1 168.193,-113.798 170.153,-113.522 172.158,-113.162 174.167,-112.744"/>
<polygon fill="black" stroke="black" points="175.199,-116.094 184.054,-110.278 173.505,-109.302 175.199,-116.094"/>
<text text-anchor="middle" x="157.693" y="-118.598" font-family="Helvetica,sans-Serif" font-size="14.00">n:n</text>
</g>
<!-- 13&#45;&gt;14 -->
<g id="edge16" class="edge"><title>13&#45;&gt;14</title>
<path fill="none" stroke="black" d="M131.37,-97.9651C136.459,-96.6561 141.993,-95.4597 147.193,-94.7982 156.451,-93.6202 158.934,-93.6202 168.193,-94.7982 170.143,-95.0462 172.139,-95.3695 174.142,-95.7458"/>
<polygon fill="black" stroke="black" points="173.491,-99.1867 184.015,-97.9651 175.027,-92.3571 173.491,-99.1867"/>
<text text-anchor="middle" x="157.693" y="-99.5982" font-family="Helvetica,sans-Serif" font-size="14.00">r:r</text>
</g>
<!-- 1 -->
<g id="node4" class="node"><title>1</title>
<ellipse fill="none" stroke="black" cx="408.385" cy="-105.798" rx="18" ry="18"/>
<text text-anchor="middle" x="408.385" y="-102.098" font-family="Helvetica,sans-Serif" font-size="14.00">1</text>
</g>
<!-- 15&#45;&gt;1 -->
<g id="edge3" class="edge"><title>15&#45;&gt;1</title>
<path fill="none" stroke="black" d="M332.569,-81.0715C346.621,-85.7156 365.93,-92.0973 381.412,-97.2141"/>
<polygon fill="black" stroke="black" points="380.346,-100.548 390.94,-100.363 382.543,-93.9016 380.346,-100.548"/>
<text text-anchor="middle" x="361.885" y="-99.5982" font-family="Helvetica,sans-Serif" font-size="14.00">G:G</text>
</g>
<!-- 8 -->
<g id="node5" class="node"><title>8</title>
<ellipse fill="none" stroke="black" cx="408.385" cy="-51.7982" rx="18" ry="18"/>
<text text-anchor="middle" x="408.385" y="-48.0982" font-family="Helvetica,sans-Serif" font-size="14.00">8</text>
</g>
<!-- 15&#45;&gt;8 -->
<g id="edge4" class="edge"><title>15&#45;&gt;8</title>
<path fill="none" stroke="black" d="M332.673,-69.0792C337.761,-67.6189 343.267,-66.096 348.385,-64.7982 358.874,-62.1384 370.49,-59.5111 380.622,-57.3221"/>
<polygon fill="black" stroke="black" points="381.48,-60.7182 390.534,-55.2167 380.025,-53.871 381.48,-60.7182"/>
<text text-anchor="middle" x="361.885" y="-68.5982" font-family="Helvetica,sans-Serif" font-size="14.00">s:s</text>
</g>
<!-- 2 -->
<g id="node6" class="node"><title>2</title>
<ellipse fill="none" stroke="black" cx="493.385" cy="-106.798" rx="18" ry="18"/>
<text text-anchor="middle" x="493.385" y="-103.098" font-family="Helvetica,sans-Serif" font-size="14.00">2</text>
</g>
<!-- 1&#45;&gt;2 -->
<g id="edge5" class="edge"><title>1&#45;&gt;2</title>
<path fill="none" stroke="black" d="M426.583,-106.005C437.712,-106.139 452.44,-106.317 465.141,-106.47"/>
<polygon fill="black" stroke="black" points="465.168,-109.97 475.21,-106.591 465.253,-102.971 465.168,-109.97"/>
<text text-anchor="middle" x="450.885" y="-110.598" font-family="Helvetica,sans-Serif" font-size="14.00">e:e</text>
</g>
<!-- 9 -->
<g id="node12" class="node"><title>9</title>
<ellipse fill="none" stroke="black" cx="493.385" cy="-51.7982" rx="18" ry="18"/>
<text text-anchor="middle" x="493.385" y="-48.0982" font-family="Helvetica,sans-Serif" font-size="14.00">9</text>
</g>
<!-- 8&#45;&gt;9 -->
<g id="edge10" class="edge"><title>8&#45;&gt;9</title>
<path fill="none" stroke="black" d="M426.583,-51.7982C437.712,-51.7982 452.44,-51.7982 465.141,-51.7982"/>
<polygon fill="black" stroke="black" points="465.21,-55.2983 475.21,-51.7982 465.21,-48.2983 465.21,-55.2983"/>
<text text-anchor="middle" x="450.885" y="-55.5982" font-family="Helvetica,sans-Serif" font-size="14.00">c:c</text>
</g>
<!-- 3 -->
<g id="node7" class="node"><title>3</title>
<ellipse fill="none" stroke="black" cx="581.183" cy="-107.798" rx="18" ry="18"/>
<text text-anchor="middle" x="581.183" y="-104.098" font-family="Helvetica,sans-Serif" font-size="14.00">3</text>
</g>
<!-- 2&#45;&gt;3 -->
<g id="edge6" class="edge"><title>2&#45;&gt;3</title>
<path fill="none" stroke="black" d="M511.748,-107.001C523.571,-107.138 539.462,-107.324 552.956,-107.481"/>
<polygon fill="black" stroke="black" points="553.099,-110.983 563.139,-107.6 553.181,-103.983 553.099,-110.983"/>
<text text-anchor="middle" x="535.885" y="-111.598" font-family="Helvetica,sans-Serif" font-size="14.00">i:i</text>
</g>
<!-- 4 -->
<g id="node8" class="node"><title>4</title>
<ellipse fill="none" stroke="black" cx="671.78" cy="-107.798" rx="18" ry="18"/>
<text text-anchor="middle" x="671.78" y="-104.098" font-family="Helvetica,sans-Serif" font-size="14.00">4</text>
</g>
<!-- 3&#45;&gt;4 -->
<g id="edge7" class="edge"><title>3&#45;&gt;4</title>
<path fill="none" stroke="black" d="M599.266,-107.798C611.767,-107.798 628.991,-107.798 643.402,-107.798"/>
<polygon fill="black" stroke="black" points="643.75,-111.298 653.75,-107.798 643.75,-104.298 643.75,-111.298"/>
<text text-anchor="middle" x="626.482" y="-111.598" font-family="Helvetica,sans-Serif" font-size="14.00">s:s</text>
</g>
<!-- 5 -->
<g id="node9" class="node"><title>5</title>
<ellipse fill="none" stroke="black" cx="762.376" cy="-107.798" rx="18" ry="18"/>
<text text-anchor="middle" x="762.376" y="-104.098" font-family="Helvetica,sans-Serif" font-size="14.00">5</text>
</g>
<!-- 4&#45;&gt;5 -->
<g id="edge8" class="edge"><title>4&#45;&gt;5</title>
<path fill="none" stroke="black" d="M689.862,-107.798C702.364,-107.798 719.587,-107.798 733.999,-107.798"/>
<polygon fill="black" stroke="black" points="734.346,-111.298 744.346,-107.798 734.346,-104.298 734.346,-111.298"/>
<text text-anchor="middle" x="717.078" y="-111.598" font-family="Helvetica,sans-Serif" font-size="14.00">t:t</text>
</g>
<!-- 16 -->
<g id="node10" class="node"><title>16</title>
<ellipse fill="none" stroke="black" cx="872.972" cy="-80.7982" rx="20.5982" ry="20.5982"/>
<text text-anchor="middle" x="872.972" y="-77.0982" font-family="Helvetica,sans-Serif" font-size="14.00">16</text>
</g>
<!-- 5&#45;&gt;16 -->
<g id="edge9" class="edge"><title>5&#45;&gt;16</title>
<path fill="none" stroke="black" d="M780.344,-103.579C797.006,-99.4368 822.758,-93.0342 842.723,-88.0703"/>
<polygon fill="black" stroke="black" points="843.697,-91.4347 852.557,-85.6252 842.008,-84.6415 843.697,-91.4347"/>
<text text-anchor="middle" x="817.674" y="-103.598" font-family="Helvetica,sans-Serif" font-size="14.00">ε:&lt;N&gt;</text>
</g>
<!-- 7 -->
<g id="node11" class="node"><title>7</title>
<ellipse fill="none" stroke="black" cx="1349.16" cy="-80.7982" rx="18" ry="18"/>
<ellipse fill="none" stroke="black" cx="1349.16" cy="-80.7982" rx="22" ry="22"/>
<text text-anchor="middle" x="1349.16" y="-77.0982" font-family="Helvetica,sans-Serif" font-size="14.00">7</text>
</g>
<!-- 16&#45;&gt;7 -->
<g id="edge18" class="edge"><title>16&#45;&gt;7</title>
<path fill="none" stroke="black" d="M888.604,-94.971C905.145,-109.443 933.566,-129.798 962.569,-129.798 962.569,-129.798 962.569,-129.798 1238.36,-129.798 1269.23,-129.798 1301.07,-113.449 1322.46,-99.6377"/>
<polygon fill="black" stroke="black" points="1324.61,-102.412 1330.95,-93.9293 1320.7,-96.6019 1324.61,-102.412"/>
<text text-anchor="middle" x="1100.46" y="-133.598" font-family="Helvetica,sans-Serif" font-size="14.00">ε:ε</text>
</g>
<!-- 17 -->
<g id="node17" class="node"><title>17</title>
<ellipse fill="none" stroke="black" cx="963.569" cy="-80.7982" rx="20.5982" ry="20.5982"/>
<text text-anchor="middle" x="963.569" y="-77.0982" font-family="Helvetica,sans-Serif" font-size="14.00">17</text>
</g>
<!-- 16&#45;&gt;17 -->
<g id="edge19" class="edge"><title>16&#45;&gt;17</title>
<path fill="none" stroke="black" d="M894.076,-80.7982C905.404,-80.7982 919.776,-80.7982 932.427,-80.7982"/>
<polygon fill="black" stroke="black" points="932.544,-84.2983 942.544,-80.7982 932.544,-77.2983 932.544,-84.2983"/>
<text text-anchor="middle" x="918.27" y="-84.5982" font-family="Helvetica,sans-Serif" font-size="14.00">l:l</text>
</g>
<!-- 21 -->
<g id="node18" class="node"><title>21</title>
<ellipse fill="none" stroke="black" cx="963.569" cy="-20.7982" rx="20.5982" ry="20.5982"/>
<text text-anchor="middle" x="963.569" y="-17.0982" font-family="Helvetica,sans-Serif" font-size="14.00">21</text>
</g>
<!-- 16&#45;&gt;21 -->
<g id="edge20" class="edge"><title>16&#45;&gt;21</title>
<path fill="none" stroke="black" d="M890.637,-69.5126C903.878,-60.5455 922.603,-47.8642 937.629,-37.6881"/>
<polygon fill="black" stroke="black" points="939.662,-40.5385 945.979,-32.0331 935.737,-34.7426 939.662,-40.5385"/>
<text text-anchor="middle" x="918.27" y="-60.5982" font-family="Helvetica,sans-Serif" font-size="14.00">h:h</text>
</g>
<!-- 10 -->
<g id="node13" class="node"><title>10</title>
<ellipse fill="none" stroke="black" cx="581.183" cy="-50.7982" rx="20.5982" ry="20.5982"/>
<text text-anchor="middle" x="581.183" y="-47.0982" font-family="Helvetica,sans-Serif" font-size="14.00">10</text>
</g>
<!-- 9&#45;&gt;10 -->
<g id="edge11" class="edge"><title>9&#45;&gt;10</title>
<path fill="none" stroke="black" d="M511.748,-51.5958C522.689,-51.4683 537.114,-51.3001 549.898,-51.1511"/>
<polygon fill="black" stroke="black" points="550.18,-54.6482 560.139,-51.0318 550.098,-47.6487 550.18,-54.6482"/>
<text text-anchor="middle" x="535.885" y="-55.5982" font-family="Helvetica,sans-Serif" font-size="14.00">h:h</text>
</g>
<!-- 11 -->
<g id="node14" class="node"><title>11</title>
<ellipse fill="none" stroke="black" cx="671.78" cy="-50.7982" rx="20.5982" ry="20.5982"/>
<text text-anchor="middle" x="671.78" y="-47.0982" font-family="Helvetica,sans-Serif" font-size="14.00">11</text>
</g>
<!-- 10&#45;&gt;11 -->
<g id="edge12" class="edge"><title>10&#45;&gt;11</title>
<path fill="none" stroke="black" d="M602.287,-50.7982C613.615,-50.7982 627.987,-50.7982 640.638,-50.7982"/>
<polygon fill="black" stroke="black" points="640.755,-54.2983 650.755,-50.7982 640.755,-47.2983 640.755,-54.2983"/>
<text text-anchor="middle" x="626.482" y="-54.5982" font-family="Helvetica,sans-Serif" font-size="14.00">ö:ö</text>
</g>
<!-- 12 -->
<g id="node15" class="node"><title>12</title>
<ellipse fill="none" stroke="black" cx="762.376" cy="-50.7982" rx="20.5982" ry="20.5982"/>
<text text-anchor="middle" x="762.376" y="-47.0982" font-family="Helvetica,sans-Serif" font-size="14.00">12</text>
</g>
<!-- 11&#45;&gt;12 -->
<g id="edge13" class="edge"><title>11&#45;&gt;12</title>
<path fill="none" stroke="black" d="M692.884,-50.7982C704.211,-50.7982 718.583,-50.7982 731.234,-50.7982"/>
<polygon fill="black" stroke="black" points="731.352,-54.2983 741.352,-50.7982 731.352,-47.2983 731.352,-54.2983"/>
<text text-anchor="middle" x="717.078" y="-54.5982" font-family="Helvetica,sans-Serif" font-size="14.00">n:n</text>
</g>
<!-- 12&#45;&gt;16 -->
<g id="edge14" class="edge"><title>12&#45;&gt;16</title>
<path fill="none" stroke="black" d="M782.821,-55.9815C797.714,-59.9726 818.763,-65.6583 837.174,-70.7982 839.081,-71.3306 841.046,-71.8834 843.025,-72.4435"/>
<polygon fill="black" stroke="black" points="842.266,-75.8665 852.842,-75.2443 844.186,-69.1351 842.266,-75.8665"/>
<text text-anchor="middle" x="817.674" y="-75.5982" font-family="Helvetica,sans-Serif" font-size="14.00">ε:&lt;A&gt;</text>
</g>
<!-- 14&#45;&gt;15 -->
<g id="edge17" class="edge"><title>14&#45;&gt;15</title>
<path fill="none" stroke="black" d="M224.542,-98.4791C240.77,-94.0642 264.089,-87.7201 282.508,-82.7094"/>
<polygon fill="black" stroke="black" points="283.429,-86.0859 292.16,-80.0835 281.592,-79.3314 283.429,-86.0859"/>
<text text-anchor="middle" x="258.289" y="-97.5982" font-family="Helvetica,sans-Serif" font-size="14.00">ε:&lt;p&gt;</text>
</g>
<!-- 18 -->
<g id="node19" class="node"><title>18</title>
<ellipse fill="none" stroke="black" cx="1054.16" cy="-80.7982" rx="20.5982" ry="20.5982"/>
<text text-anchor="middle" x="1054.16" y="-77.0982" font-family="Helvetica,sans-Serif" font-size="14.00">18</text>
</g>
<!-- 17&#45;&gt;18 -->
<g id="edge21" class="edge"><title>17&#45;&gt;18</title>
<path fill="none" stroke="black" d="M984.673,-80.7982C996,-80.7982 1010.37,-80.7982 1023.02,-80.7982"/>
<polygon fill="black" stroke="black" points="1023.14,-84.2983 1033.14,-80.7982 1023.14,-77.2983 1023.14,-84.2983"/>
<text text-anchor="middle" x="1008.87" y="-84.5982" font-family="Helvetica,sans-Serif" font-size="14.00">i:i</text>
</g>
<!-- 22 -->
<g id="node22" class="node"><title>22</title>
<ellipse fill="none" stroke="black" cx="1054.16" cy="-20.7982" rx="20.5982" ry="20.5982"/>
<text text-anchor="middle" x="1054.16" y="-17.0982" font-family="Helvetica,sans-Serif" font-size="14.00">23</text>
</g>
<!-- 21&#45;&gt;22 -->
<g id="edge25" class="edge"><title>21&#45;&gt;22</title>
<path fill="none" stroke="black" d="M984.673,-20.7982C996,-20.7982 1010.37,-20.7982 1023.02,-20.7982"/>
<polygon fill="black" stroke="black" points="1023.14,-24.2983 1033.14,-20.7982 1023.14,-17.2983 1023.14,-24.2983"/>
<text text-anchor="middle" x="1008.87" y="-24.5982" font-family="Helvetica,sans-Serif" font-size="14.00">e:e</text>
</g>
<!-- 19 -->
<g id="node20" class="node"><title>19</title>
<ellipse fill="none" stroke="black" cx="1146.76" cy="-50.7982" rx="20.5982" ry="20.5982"/>
<text text-anchor="middle" x="1146.76" y="-47.0982" font-family="Helvetica,sans-Serif" font-size="14.00">19</text>
</g>
<!-- 18&#45;&gt;19 -->
<g id="edge22" class="edge"><title>18&#45;&gt;19</title>
<path fill="none" stroke="black" d="M1074.79,-76.8079C1085.61,-74.3777 1099.19,-70.9427 1110.96,-66.7982 1113.52,-65.8979 1116.15,-64.8785 1118.75,-63.8007"/>
<polygon fill="black" stroke="black" points="1120.22,-66.9805 1127.96,-59.75 1117.4,-60.573 1120.22,-66.9805"/>
<text text-anchor="middle" x="1100.46" y="-76.5982" font-family="Helvetica,sans-Serif" font-size="14.00">c:c</text>
</g>
<!-- 18&#45;&gt;19 -->
<g id="edge26" class="edge"><title>18&#45;&gt;19</title>
<path fill="none" stroke="black" d="M1067.59,-64.4991C1073.56,-58.0003 1081.3,-51.2522 1089.96,-47.7982 1098.16,-44.5282 1107.58,-43.9621 1116.32,-44.5907"/>
<polygon fill="black" stroke="black" points="1116.16,-48.0971 1126.51,-45.8486 1117.02,-41.1499 1116.16,-48.0971"/>
<text text-anchor="middle" x="1100.46" y="-51.5982" font-family="Helvetica,sans-Serif" font-size="14.00">i:i</text>
</g>
<!-- 20 -->
<g id="node21" class="node"><title>20</title>
<ellipse fill="none" stroke="black" cx="1237.36" cy="-80.7982" rx="20.5982" ry="20.5982"/>
<text text-anchor="middle" x="1237.36" y="-77.0982" font-family="Helvetica,sans-Serif" font-size="14.00">20</text>
</g>
<!-- 19&#45;&gt;20 -->
<g id="edge23" class="edge"><title>19&#45;&gt;20</title>
<path fill="none" stroke="black" d="M1166.99,-57.3077C1178.91,-61.3451 1194.45,-66.606 1207.79,-71.1254"/>
<polygon fill="black" stroke="black" points="1206.88,-74.5121 1217.48,-74.4044 1209.13,-67.8819 1206.88,-74.5121"/>
<text text-anchor="middle" x="1192.06" y="-72.5982" font-family="Helvetica,sans-Serif" font-size="14.00">h:h</text>
</g>
<!-- 19&#45;&gt;20 -->
<g id="edge27" class="edge"><title>19&#45;&gt;20</title>
<path fill="none" stroke="black" d="M1166.61,-44.2125C1177.25,-41.5775 1190.57,-40.1373 1201.56,-44.7982 1207.65,-47.3822 1213.2,-51.6128 1217.98,-56.2821"/>
<polygon fill="black" stroke="black" points="1215.52,-58.7781 1224.85,-63.8073 1220.69,-54.0605 1215.52,-58.7781"/>
<text text-anchor="middle" x="1192.06" y="-48.5982" font-family="Helvetica,sans-Serif" font-size="14.00">t:t</text>
</g>
<!-- 20&#45;&gt;7 -->
<g id="edge24" class="edge"><title>20&#45;&gt;7</title>
<path fill="none" stroke="black" d="M1258.24,-80.7982C1274.54,-80.7982 1297.9,-80.7982 1316.73,-80.7982"/>
<polygon fill="black" stroke="black" points="1316.92,-84.2983 1326.92,-80.7982 1316.92,-77.2983 1316.92,-84.2983"/>
<text text-anchor="middle" x="1292.66" y="-84.5982" font-family="Helvetica,sans-Serif" font-size="14.00">ε:&lt;A&gt;</text>
</g>
<!-- 24 -->
<g id="node23" class="node"><title>24</title>
<ellipse fill="none" stroke="black" cx="20.7982" cy="-131.798" rx="20.5982" ry="20.5982"/>
<text text-anchor="middle" x="20.7982" y="-128.098" font-family="Helvetica,sans-Serif" font-size="14.00">24</text>
</g>
<!-- 25 -->
<g id="node24" class="node"><title>25</title>
<ellipse fill="none" stroke="black" cx="1237.36" cy="-20.7982" rx="20.5982" ry="20.5982"/>
<text text-anchor="middle" x="1237.36" y="-17.0982" font-family="Helvetica,sans-Serif" font-size="14.00">25</text>
</g>
<!-- 25&#45;&gt;7 -->
<g id="edge28" class="edge"><title>25&#45;&gt;7</title>
<path fill="none" stroke="black" d="M1256,-30.4382C1273.45,-39.9754 1300.42,-54.7106 1320.68,-65.7823"/>
<polygon fill="black" stroke="black" points="1319,-68.8556 1329.46,-70.5796 1322.36,-62.7129 1319,-68.8556"/>
<text text-anchor="middle" x="1292.66" y="-63.5982" font-family="Helvetica,sans-Serif" font-size="14.00">ε:&lt;N&gt;</text>
</g>
</g>
</svg>
