<?xml version="1.0" encoding="UTF-8" standalone="no"?>
<!DOCTYPE svg PUBLIC "-//W3C//DTD SVG 1.1//EN"
 "http://www.w3.org/Graphics/SVG/1.1/DTD/svg11.dtd">
<!-- Generated by graphviz version 2.38.0 (20140413.2041)
 -->
<!-- Title: FSM Pages: 1 -->
<svg width="360pt" height="43pt"
 viewBox="0.00 0.00 360.00 43.49" xmlns="http://www.w3.org/2000/svg" xmlns:xlink="http://www.w3.org/1999/xlink">
<g id="graph0" class="graph" transform="scale(0.261029 0.261029) rotate(0) translate(4 162.596)">
<title>FSM</title>
<polygon fill="white" stroke="none" points="-4,4 -4,-162.596 1375.16,-162.596 1375.16,4 -4,4"/>
<!-- 0 -->
<g id="node1" class="node"><title>0</title>
<ellipse fill="none" stroke="black" stroke-width="2" cx="20.7982" cy="-80.7982" rx="18" ry="18"/>
<text text-anchor="middle" x="20.7982" y="-77.0982" font-family="Helvetica,sans-Serif" font-size="14.00">0</text>
</g>
<!-- 13 -->
<g id="node2" class="node"><title>13</title>
<ellipse fill="none" stroke="black" cx="111.394" cy="-109.798" rx="20.5982" ry="20.5982"/>
<text text-anchor="middle" x="111.394" y="-106.098" font-family="Helvetica,sans-Serif" font-size="14.00">13</text>
</g>
<!-- 0&#45;&gt;13 -->
<g id="edge1" class="edge"><title>0&#45;&gt;13</title>
<path fill="none" stroke="black" d="M38.0481,-86.1172C50.3058,-90.1295 67.431,-95.735 81.9428,-100.485"/>
<polygon fill="black" stroke="black" points="80.8874,-103.822 91.48,-103.607 83.065,-97.1697 80.8874,-103.822"/>
<text text-anchor="middle" x="66.0963" y="-102.598" font-family="Helvetica,sans-Serif" font-size="14.00">u:u</text>
</g>
<!-- 15 -->
<g id="node3" class="node"><title>15</title>
<ellipse fill="none" stroke="black" cx="312.587" cy="-80.7982" rx="20.5982" ry="20.5982"/>
<text text-anchor="middle" x="312.587" y="-77.0982" font-family="Helvetica,sans-Serif" font-size="14.00">15</text>
</g>
<!-- 0&#45;&gt;15 -->
<g id="edge2" class="edge"><title>0&#45;&gt;15</title>
<path fill="none" stroke="black" d="M39.0444,-80.4781C52.9589,-80.2365 73.0371,-79.9258 90.5963,-79.7982 150.236,-79.3647 165.149,-79.4546 224.789,-79.7982 243.579,-79.9064 264.656,-80.1464 281.335,-80.3642"/>
<polygon fill="black" stroke="black" points="281.546,-83.8672 291.592,-80.5025 281.64,-76.8679 281.546,-83.8672"/>
<text text-anchor="middle" x="157.693" y="-83.5982" font-family="Helvetica,sans-Serif" font-size="14.00">ε:ε</text>
</g>
<!-- 14 -->
<g id="node16" class="node"><title>14</title>
<ellipse fill="none" stroke="black" cx="203.991" cy="-109.798" rx="20.5982" ry="20.5982"/>
<text text-anchor="middle" x="203.991" y="-106.098" font-family="Helvetica,sans-Serif" font-size="14.00">14</text>
</g>
<!-- 13&#45;&gt;14 -->
<g id="edge15" class="edge"><title>13&#45;&gt;14</title>
<path fill="none" stroke="black" d="M131.331,-116.278C136.42,-117.732 141.964,-119.062 147.193,-119.798 156.435,-121.1 158.95,-121.1 168.193,-119.798 170.153,-119.522 172.158,-119.162 174.167,-118.744"/>
<polygon fill="black" stroke="black" points="175.199,-122.094 184.054,-116.278 173.505,-115.302 175.199,-122.094"/>
<text text-anchor="middle" x="157.693" y="-124.598" font-family="Helvetica,sans-Serif" font-size="14.00">n:n</text>
</g>
<!-- 13&#45;&gt;14 -->
<g id="edge16" class="edge"><title>13&#45;&gt;14</title>
<path fill="none" stroke="black" d="M131.37,-103.965C136.459,-102.656 141.993,-101.46 147.193,-100.798 156.451,-99.6202 158.934,-99.6202 168.193,-100.798 170.143,-101.046 172.139,-101.37 174.142,-101.746"/>
<polygon fill="black" stroke="black" points="173.491,-105.187 184.015,-103.965 175.027,-98.3571 173.491,-105.187"/>
<text text-anchor="middle" x="157.693" y="-105.598" font-family="Helvetica,sans-Serif" font-size="14.00">r:r</text>
</g>
<!-- 1 -->
<g id="node4" class="node"><title>1</title>
<ellipse fill="none" stroke="black" cx="408.385" cy="-134.798" rx="18" ry="18"/>
<text text-anchor="middle" x="408.385" y="-131.098" font-family="Helvetica,sans-Serif" font-size="14.00">1</text>
</g>
<!-- 15&#45;&gt;1 -->
<g id="edge3" class="edge"><title>15&#45;&gt;1</title>
<path fill="none" stroke="black" d="M331.23,-90.9551C345.958,-99.4342 367.095,-111.603 383.366,-120.97"/>
<polygon fill="black" stroke="black" points="381.886,-124.157 392.299,-126.113 385.379,-118.09 381.886,-124.157"/>
<text text-anchor="middle" x="361.885" y="-119.598" font-family="Helvetica,sans-Serif" font-size="14.00">G:G</text>
</g>
<!-- 8 -->
<g id="node5" class="node"><title>8</title>
<ellipse fill="none" stroke="black" cx="408.385" cy="-80.7982" rx="18" ry="18"/>
<text text-anchor="middle" x="408.385" y="-77.0982" font-family="Helvetica,sans-Serif" font-size="14.00">8</text>
</g>
<!-- 15&#45;&gt;8 -->
<g id="edge4" class="edge"><title>15&#45;&gt;8</title>
<path fill="none" stroke="black" d="M333.479,-80.7982C347.067,-80.7982 365.243,-80.7982 380.169,-80.7982"/>
<polygon fill="black" stroke="black" points="380.352,-84.2983 390.352,-80.7982 380.351,-77.2983 380.352,-84.2983"/>
<text text-anchor="middle" x="361.885" y="-84.5982" font-family="Helvetica,sans-Serif" font-size="14.00">s:s</text>
</g>
<!-- 2 -->
<g id="node6" class="node"><title>2</title>
<ellipse fill="none" stroke="black" cx="493.385" cy="-135.798" rx="18" ry="18"/>
<text text-anchor="middle" x="493.385" y="-132.098" font-family="Helvetica,sans-Serif" font-size="14.00">2</text>
</g>
<!-- 1&#45;&gt;2 -->
<g id="edge5" class="edge"><title>1&#45;&gt;2</title>
<path fill="none" stroke="black" d="M426.583,-135.005C437.712,-135.139 452.44,-135.317 465.141,-135.47"/>
<polygon fill="black" stroke="black" points="465.168,-138.97 475.21,-135.591 465.253,-131.971 465.168,-138.97"/>
<text text-anchor="middle" x="450.885" y="-139.598" font-family="Helvetica,sans-Serif" font-size="14.00">e:e</text>
</g>
<!-- 9 -->
<g id="node12" class="node"><title>9</title>
<ellipse fill="none" stroke="black" cx="493.385" cy="-80.7982" rx="18" ry="18"/>
<text text-anchor="middle" x="493.385" y="-77.0982" font-family="Helvetica,sans-Serif" font-size="14.00">9</text>
</g>
<!-- 8&#45;&gt;9 -->
<g id="edge10" class="edge"><title>8&#45;&gt;9</title>
<path fill="none" stroke="black" d="M426.583,-80.7982C437.712,-80.7982 452.44,-80.7982 465.141,-80.7982"/>
<polygon fill="black" stroke="black" points="465.21,-84.2983 475.21,-80.7982 465.21,-77.2983 465.21,-84.2983"/>
<text text-anchor="middle" x="450.885" y="-84.5982" font-family="Helvetica,sans-Serif" font-size="14.00">c:c</text>
</g>
<!-- 3 -->
<g id="node7" class="node"><title>3</title>
<ellipse fill="none" stroke="black" cx="581.183" cy="-137.798" rx="18" ry="18"/>
<text text-anchor="middle" x="581.183" y="-134.098" font-family="Helvetica,sans-Serif" font-size="14.00">3</text>
</g>
<!-- 2&#45;&gt;3 -->
<g id="edge6" class="edge"><title>2&#45;&gt;3</title>
<path fill="none" stroke="black" d="M511.748,-136.203C523.571,-136.478 539.462,-136.849 552.956,-137.163"/>
<polygon fill="black" stroke="black" points="553.061,-140.667 563.139,-137.401 553.224,-133.669 553.061,-140.667"/>
<text text-anchor="middle" x="535.885" y="-141.598" font-family="Helvetica,sans-Serif" font-size="14.00">i:i</text>
</g>
<!-- 4 -->
<g id="node8" class="node"><title>4</title>
<ellipse fill="none" stroke="black" cx="671.78" cy="-137.798" rx="18" ry="18"/>
<text text-anchor="middle" x="671.78" y="-134.098" font-family="Helvetica,sans-Serif" font-size="14.00">4</text>
</g>
<!-- 3&#45;&gt;4 -->
<g id="edge7" class="edge"><title>3&#45;&gt;4</title>
<path fill="none" stroke="black" d="M599.266,-137.798C611.767,-137.798 628.991,-137.798 643.402,-137.798"/>
<polygon fill="black" stroke="black" points="643.75,-141.298 653.75,-137.798 643.75,-134.298 643.75,-141.298"/>
<text text-anchor="middle" x="626.482" y="-141.598" font-family="Helvetica,sans-Serif" font-size="14.00">s:s</text>
</g>
<!-- 5 -->
<g id="node9" class="node"><title>5</title>
<ellipse fill="none" stroke="black" cx="762.376" cy="-137.798" rx="18" ry="18"/>
<text text-anchor="middle" x="762.376" y="-134.098" font-family="Helvetica,sans-Serif" font-size="14.00">5</text>
</g>
<!-- 4&#45;&gt;5 -->
<g id="edge8" class="edge"><title>4&#45;&gt;5</title>
<path fill="none" stroke="black" d="M689.862,-137.798C702.364,-137.798 719.587,-137.798 733.999,-137.798"/>
<polygon fill="black" stroke="black" points="734.346,-141.298 744.346,-137.798 734.346,-134.298 734.346,-141.298"/>
<text text-anchor="middle" x="717.078" y="-141.598" font-family="Helvetica,sans-Serif" font-size="14.00">t:t</text>
</g>
<!-- 16 -->
<g id="node10" class="node"><title>16</title>
<ellipse fill="none" stroke="black" cx="872.972" cy="-80.7982" rx="20.5982" ry="20.5982"/>
<text text-anchor="middle" x="872.972" y="-77.0982" font-family="Helvetica,sans-Serif" font-size="14.00">16</text>
</g>
<!-- 5&#45;&gt;16 -->
<g id="edge9" class="edge"><title>5&#45;&gt;16</title>
<path fill="none" stroke="black" d="M778.697,-130.046C793.662,-122.441 817.059,-110.467 837.174,-99.7982 839.884,-98.361 842.705,-96.8484 845.516,-95.3303"/>
<polygon fill="black" stroke="black" points="847.2,-98.3984 854.314,-90.5472 843.857,-92.2484 847.2,-98.3984"/>
<text text-anchor="middle" x="817.674" y="-123.598" font-family="Helvetica,sans-Serif" font-size="14.00">ε:&lt;N&gt;</text>
</g>
<!-- 16&#45;&gt;15 -->
<g id="edge21" class="edge"><title>16&#45;&gt;15</title>
<path fill="none" stroke="black" d="M856.616,-67.4498C836.59,-51.4589 799.803,-26.7982 763.376,-26.7982 407.385,-26.7982 407.385,-26.7982 407.385,-26.7982 379.847,-26.7982 353.098,-44.4957 335.26,-59.6279"/>
<polygon fill="black" stroke="black" points="332.871,-57.0686 327.721,-66.3271 337.521,-62.3014 332.871,-57.0686"/>
<text text-anchor="middle" x="581.183" y="-30.5982" font-family="Helvetica,sans-Serif" font-size="14.00">ε:ε</text>
</g>
<!-- 7 -->
<g id="node11" class="node"><title>7</title>
<ellipse fill="none" stroke="black" cx="1349.16" cy="-80.7982" rx="18" ry="18"/>
<ellipse fill="none" stroke="black" cx="1349.16" cy="-80.7982" rx="22" ry="22"/>
<text text-anchor="middle" x="1349.16" y="-77.0982" font-family="Helvetica,sans-Serif" font-size="14.00">7</text>
</g>
<!-- 16&#45;&gt;7 -->
<g id="edge18" class="edge"><title>16&#45;&gt;7</title>
<path fill="none" stroke="black" d="M888.604,-94.971C905.145,-109.443 933.566,-129.798 962.569,-129.798 962.569,-129.798 962.569,-129.798 1238.36,-129.798 1269.23,-129.798 1301.07,-113.449 1322.46,-99.6377"/>
<polygon fill="black" stroke="black" points="1324.61,-102.412 1330.95,-93.9293 1320.7,-96.6019 1324.61,-102.412"/>
<text text-anchor="middle" x="1100.46" y="-133.598" font-family="Helvetica,sans-Serif" font-size="14.00">ε:ε</text>
</g>
<!-- 17 -->
<g id="node17" class="node"><title>17</title>
<ellipse fill="none" stroke="black" cx="963.569" cy="-80.7982" rx="20.5982" ry="20.5982"/>
<text text-anchor="middle" x="963.569" y="-77.0982" font-family="Helvetica,sans-Serif" font-size="14.00">17</text>
</g>
<!-- 16&#45;&gt;17 -->
<g id="edge19" class="edge"><title>16&#45;&gt;17</title>
<path fill="none" stroke="black" d="M894.076,-80.7982C905.404,-80.7982 919.776,-80.7982 932.427,-80.7982"/>
<polygon fill="black" stroke="black" points="932.544,-84.2983 942.544,-80.7982 932.544,-77.2983 932.544,-84.2983"/>
<text text-anchor="middle" x="918.27" y="-84.5982" font-family="Helvetica,sans-Serif" font-size="14.00">l:l</text>
</g>
<!-- 21 -->
<g id="node18" class="node"><title>21</title>
<ellipse fill="none" stroke="black" cx="963.569" cy="-20.7982" rx="20.5982" ry="20.5982"/>
<text text-anchor="middle" x="963.569" y="-17.0982" font-family="Helvetica,sans-Serif" font-size="14.00">21</text>
</g>
<!-- 16&#45;&gt;21 -->
<g id="edge20" class="edge"><title>16&#45;&gt;21</title>
<path fill="none" stroke="black" d="M890.637,-69.5126C903.878,-60.5455 922.603,-47.8642 937.629,-37.6881"/>
<polygon fill="black" stroke="black" points="939.662,-40.5385 945.979,-32.0331 935.737,-34.7426 939.662,-40.5385"/>
<text text-anchor="middle" x="918.27" y="-60.5982" font-family="Helvetica,sans-Serif" font-size="14.00">h:h</text>
</g>
<!-- 10 -->
<g id="node13" class="node"><title>10</title>
<ellipse fill="none" stroke="black" cx="581.183" cy="-80.7982" rx="20.5982" ry="20.5982"/>
<text text-anchor="middle" x="581.183" y="-77.0982" font-family="Helvetica,sans-Serif" font-size="14.00">10</text>
</g>
<!-- 9&#45;&gt;10 -->
<g id="edge11" class="edge"><title>9&#45;&gt;10</title>
<path fill="none" stroke="black" d="M511.748,-80.7982C522.689,-80.7982 537.114,-80.7982 549.898,-80.7982"/>
<polygon fill="black" stroke="black" points="550.139,-84.2983 560.139,-80.7982 550.139,-77.2983 550.139,-84.2983"/>
<text text-anchor="middle" x="535.885" y="-84.5982" font-family="Helvetica,sans-Serif" font-size="14.00">h:h</text>
</g>
<!-- 11 -->
<g id="node14" class="node"><title>11</title>
<ellipse fill="none" stroke="black" cx="671.78" cy="-80.7982" rx="20.5982" ry="20.5982"/>
<text text-anchor="middle" x="671.78" y="-77.0982" font-family="Helvetica,sans-Serif" font-size="14.00">11</text>
</g>
<!-- 10&#45;&gt;11 -->
<g id="edge12" class="edge"><title>10&#45;&gt;11</title>
<path fill="none" stroke="black" d="M602.287,-80.7982C613.615,-80.7982 627.987,-80.7982 640.638,-80.7982"/>
<polygon fill="black" stroke="black" points="640.755,-84.2983 650.755,-80.7982 640.755,-77.2983 640.755,-84.2983"/>
<text text-anchor="middle" x="626.482" y="-84.5982" font-family="Helvetica,sans-Serif" font-size="14.00">ö:ö</text>
</g>
<!-- 12 -->
<g id="node15" class="node"><title>12</title>
<ellipse fill="none" stroke="black" cx="762.376" cy="-80.7982" rx="20.5982" ry="20.5982"/>
<text text-anchor="middle" x="762.376" y="-77.0982" font-family="Helvetica,sans-Serif" font-size="14.00">12</text>
</g>
<!-- 11&#45;&gt;12 -->
<g id="edge13" class="edge"><title>11&#45;&gt;12</title>
<path fill="none" stroke="black" d="M692.884,-80.7982C704.211,-80.7982 718.583,-80.7982 731.234,-80.7982"/>
<polygon fill="black" stroke="black" points="731.352,-84.2983 741.352,-80.7982 731.352,-77.2983 731.352,-84.2983"/>
<text text-anchor="middle" x="717.078" y="-84.5982" font-family="Helvetica,sans-Serif" font-size="14.00">n:n</text>
</g>
<!-- 12&#45;&gt;16 -->
<g id="edge14" class="edge"><title>12&#45;&gt;16</title>
<path fill="none" stroke="black" d="M783.294,-80.7982C799.648,-80.7982 823.069,-80.7982 841.735,-80.7982"/>
<polygon fill="black" stroke="black" points="841.813,-84.2983 851.813,-80.7982 841.813,-77.2983 841.813,-84.2983"/>
<text text-anchor="middle" x="817.674" y="-84.5982" font-family="Helvetica,sans-Serif" font-size="14.00">ε:&lt;A&gt;</text>
</g>
<!-- 14&#45;&gt;15 -->
<g id="edge17" class="edge"><title>14&#45;&gt;15</title>
<path fill="none" stroke="black" d="M224.542,-104.479C240.77,-100.064 264.089,-93.7201 282.508,-88.7094"/>
<polygon fill="black" stroke="black" points="283.429,-92.0859 292.16,-86.0835 281.592,-85.3314 283.429,-92.0859"/>
<text text-anchor="middle" x="258.289" y="-103.598" font-family="Helvetica,sans-Serif" font-size="14.00">ε:&lt;p&gt;</text>
</g>
<!-- 18 -->
<g id="node19" class="node"><title>18</title>
<ellipse fill="none" stroke="black" cx="1054.16" cy="-80.7982" rx="20.5982" ry="20.5982"/>
<text text-anchor="middle" x="1054.16" y="-77.0982" font-family="Helvetica,sans-Serif" font-size="14.00">18</text>
</g>
<!-- 17&#45;&gt;18 -->
<g id="edge22" class="edge"><title>17&#45;&gt;18</title>
<path fill="none" stroke="black" d="M984.673,-80.7982C996,-80.7982 1010.37,-80.7982 1023.02,-80.7982"/>
<polygon fill="black" stroke="black" points="1023.14,-84.2983 1033.14,-80.7982 1023.14,-77.2983 1023.14,-84.2983"/>
<text text-anchor="middle" x="1008.87" y="-84.5982" font-family="Helvetica,sans-Serif" font-size="14.00">i:i</text>
</g>
<!-- 22 -->
<g id="node22" class="node"><title>22</title>
<ellipse fill="none" stroke="black" cx="1054.16" cy="-20.7982" rx="20.5982" ry="20.5982"/>
<text text-anchor="middle" x="1054.16" y="-17.0982" font-family="Helvetica,sans-Serif" font-size="14.00">23</text>
</g>
<!-- 21&#45;&gt;22 -->
<g id="edge26" class="edge"><title>21&#45;&gt;22</title>
<path fill="none" stroke="black" d="M984.673,-20.7982C996,-20.7982 1010.37,-20.7982 1023.02,-20.7982"/>
<polygon fill="black" stroke="black" points="1023.14,-24.2983 1033.14,-20.7982 1023.14,-17.2983 1023.14,-24.2983"/>
<text text-anchor="middle" x="1008.87" y="-24.5982" font-family="Helvetica,sans-Serif" font-size="14.00">e:e</text>
</g>
<!-- 19 -->
<g id="node20" class="node"><title>19</title>
<ellipse fill="none" stroke="black" cx="1146.76" cy="-50.7982" rx="20.5982" ry="20.5982"/>
<text text-anchor="middle" x="1146.76" y="-47.0982" font-family="Helvetica,sans-Serif" font-size="14.00">19</text>
</g>
<!-- 18&#45;&gt;19 -->
<g id="edge23" class="edge"><title>18&#45;&gt;19</title>
<path fill="none" stroke="black" d="M1074.79,-76.8079C1085.61,-74.3777 1099.19,-70.9427 1110.96,-66.7982 1113.52,-65.8979 1116.15,-64.8785 1118.75,-63.8007"/>
<polygon fill="black" stroke="black" points="1120.22,-66.9805 1127.96,-59.75 1117.4,-60.573 1120.22,-66.9805"/>
<text text-anchor="middle" x="1100.46" y="-76.5982" font-family="Helvetica,sans-Serif" font-size="14.00">c:c</text>
</g>
<!-- 18&#45;&gt;19 -->
<g id="edge27" class="edge"><title>18&#45;&gt;19</title>
<path fill="none" stroke="black" d="M1067.59,-64.4991C1073.56,-58.0003 1081.3,-51.2522 1089.96,-47.7982 1098.16,-44.5282 1107.58,-43.9621 1116.32,-44.5907"/>
<polygon fill="black" stroke="black" points="1116.16,-48.0971 1126.51,-45.8486 1117.02,-41.1499 1116.16,-48.0971"/>
<text text-anchor="middle" x="1100.46" y="-51.5982" font-family="Helvetica,sans-Serif" font-size="14.00">i:i</text>
</g>
<!-- 20 -->
<g id="node21" class="node"><title>20</title>
<ellipse fill="none" stroke="black" cx="1237.36" cy="-80.7982" rx="20.5982" ry="20.5982"/>
<text text-anchor="middle" x="1237.36" y="-77.0982" font-family="Helvetica,sans-Serif" font-size="14.00">20</text>
</g>
<!-- 19&#45;&gt;20 -->
<g id="edge24" class="edge"><title>19&#45;&gt;20</title>
<path fill="none" stroke="black" d="M1166.99,-57.3077C1178.91,-61.3451 1194.45,-66.606 1207.79,-71.1254"/>
<polygon fill="black" stroke="black" points="1206.88,-74.5121 1217.48,-74.4044 1209.13,-67.8819 1206.88,-74.5121"/>
<text text-anchor="middle" x="1192.06" y="-72.5982" font-family="Helvetica,sans-Serif" font-size="14.00">h:h</text>
</g>
<!-- 19&#45;&gt;20 -->
<g id="edge28" class="edge"><title>19&#45;&gt;20</title>
<path fill="none" stroke="black" d="M1166.61,-44.2125C1177.25,-41.5775 1190.57,-40.1373 1201.56,-44.7982 1207.65,-47.3822 1213.2,-51.6128 1217.98,-56.2821"/>
<polygon fill="black" stroke="black" points="1215.52,-58.7781 1224.85,-63.8073 1220.69,-54.0605 1215.52,-58.7781"/>
<text text-anchor="middle" x="1192.06" y="-48.5982" font-family="Helvetica,sans-Serif" font-size="14.00">t:t</text>
</g>
<!-- 20&#45;&gt;7 -->
<g id="edge25" class="edge"><title>20&#45;&gt;7</title>
<path fill="none" stroke="black" d="M1258.24,-80.7982C1274.54,-80.7982 1297.9,-80.7982 1316.73,-80.7982"/>
<polygon fill="black" stroke="black" points="1316.92,-84.2983 1326.92,-80.7982 1316.92,-77.2983 1316.92,-84.2983"/>
<text text-anchor="middle" x="1292.66" y="-84.5982" font-family="Helvetica,sans-Serif" font-size="14.00">ε:&lt;A&gt;</text>
</g>
<!-- 24 -->
<g id="node23" class="node"><title>24</title>
<ellipse fill="none" stroke="black" cx="20.7982" cy="-137.798" rx="20.5982" ry="20.5982"/>
<text text-anchor="middle" x="20.7982" y="-134.098" font-family="Helvetica,sans-Serif" font-size="14.00">24</text>
</g>
<!-- 25 -->
<g id="node24" class="node"><title>25</title>
<ellipse fill="none" stroke="black" cx="1237.36" cy="-20.7982" rx="20.5982" ry="20.5982"/>
<text text-anchor="middle" x="1237.36" y="-17.0982" font-family="Helvetica,sans-Serif" font-size="14.00">25</text>
</g>
<!-- 25&#45;&gt;7 -->
<g id="edge29" class="edge"><title>25&#45;&gt;7</title>
<path fill="none" stroke="black" d="M1256,-30.4382C1273.45,-39.9754 1300.42,-54.7106 1320.68,-65.7823"/>
<polygon fill="black" stroke="black" points="1319,-68.8556 1329.46,-70.5796 1322.36,-62.7129 1319,-68.8556"/>
<text text-anchor="middle" x="1292.66" y="-63.5982" font-family="Helvetica,sans-Serif" font-size="14.00">ε:&lt;N&gt;</text>
</g>
</g>
</svg>
