<?xml version="1.0" standalone="no"?><!DOCTYPE svg PUBLIC "-//W3C//DTD SVG 1.1//EN" "http://www.w3.org/Graphics/SVG/1.1/DTD/svg11.dtd"><svg xmlns:xlink="http://www.w3.org/1999/xlink" version="1.1" style="font-family:'lucida grande', 'lucida sans unicode', arial, helvetica, sans-serif;font-size:12px;" xmlns="http://www.w3.org/2000/svg" width="600" height="400"><desc>Created with Highcharts 4.1.7</desc><defs><clipPath id="highcharts-7"><rect x="0" y="0" width="519" height="242"></rect></clipPath></defs><rect x="0" y="0" width="600" height="400" strokeWidth="0" fill="#FFFFFF" class=" highcharts-background"></rect><g class="highcharts-grid" ></g><g class="highcharts-grid" ><path fill="none" d="M 71 301.5 L 590 301.5" stroke="#D8D8D8" stroke-width="1"  opacity="1"></path><path fill="none" d="M 71 253.5 L 590 253.5" stroke="#D8D8D8" stroke-width="1"  opacity="1"></path><path fill="none" d="M 71 204.5 L 590 204.5" stroke="#D8D8D8" stroke-width="1"  opacity="1"></path><path fill="none" d="M 71 156.5 L 590 156.5" stroke="#D8D8D8" stroke-width="1"  opacity="1"></path><path fill="none" d="M 71 107.5 L 590 107.5" stroke="#D8D8D8" stroke-width="1"  opacity="1"></path><path fill="none" d="M 71 58.5 L 590 58.5" stroke="#D8D8D8" stroke-width="1"  opacity="1"></path></g><g class="highcharts-axis" ><path fill="none" d="M 71 301.5 L 590 301.5" stroke="#C0D0E0" stroke-width="1"  visibility="visible"></path></g><g class="highcharts-axis" ><text x="23.71875"  text-anchor="middle" transform="translate(0,0) rotate(270 23.71875 180)" class=" highcharts-yaxis-title" style="color:#707070;fill:#707070;" visibility="visible" y="180"><tspan>Freq. (pro Million Tokens)</tspan></text></g><g class="highcharts-series-group" ><g class="highcharts-series" visibility="visible"  transform="translate(71,59) scale(1 1)" clip-path="url(#highcharts-7)"><path fill="none" d="M 6.178571428571429 242 C 6.178571428571429 242 13.592857142857142 242 18.535714285714285 242 C 23.478571428571428 242 25.95 242 30.892857142857146 242 C 35.83571428571429 242 38.30714285714286 242 43.25 242 C 48.19285714285714 242 50.66428571428572 241.43696873739833 55.60714285714286 241.43696873739833 C 60.55 241.43696873739833 63.02142857142858 241.43696873739833 67.96428571428572 241.43696873739833 C 72.90714285714287 241.43696873739833 75.37857142857143 241.43696873739833 80.32142857142857 241.43696873739833 C 85.2642857142857 241.43696873739833 87.7357142857143 241.0478714679849 92.67857142857143 241.0478714679849 C 97.62142857142858 241.0478714679849 100.09285714285716 241.0478714679849 105.03571428571429 241.0478714679849 C 109.97857142857144 241.0478714679849 112.45 241.0478714679849 117.39285714285715 241.0478714679849 C 122.33571428571429 241.0478714679849 124.80714285714286 241.0478714679849 129.75 241.0478714679849 C 134.69285714285715 241.0478714679849 137.1642857142857 241.61090273058656 142.10714285714286 241.61090273058656 C 147.05 241.61090273058656 149.52142857142857 241.61090273058656 154.4642857142857 241.61090273058656 C 159.40714285714284 241.61090273058656 161.87857142857143 241.61090273058656 166.82142857142856 241.61090273058656 C 171.76428571428568 241.61090273058656 174.23571428571427 242 179.17857142857142 242 C 184.12142857142857 242 186.59285714285716 242 191.53571428571428 242 C 196.47857142857143 242 198.95 242 203.89285714285714 242 C 208.83571428571432 242 211.30714285714285 242 216.25 242 C 221.19285714285715 242 223.66428571428568 242 228.60714285714286 242 C 233.55 242 236.02142857142857 242 240.96428571428572 242 C 245.90714285714284 242 248.37857142857146 241.72893131984935 253.32142857142858 241.72893131984935 C 258.26428571428573 241.72893131984935 260.7357142857143 241.72893131984935 265.67857142857144 241.72893131984935 C 270.6214285714286 241.72893131984935 273.09285714285716 241.72893131984935 278.03571428571433 241.72893131984935 C 282.97857142857146 241.72893131984935 285.45000000000005 241.72893131984935 290.39285714285717 241.72893131984935 C 295.3357142857143 241.72893131984935 297.8071428571428 241.72893131984935 302.75 241.72893131984935 C 307.6928571428572 241.72893131984935 310.1642857142857 241.72893131984935 315.1071428571429 241.72893131984935 C 320.05 241.72893131984935 322.5214285714286 241.25275453538117 327.4642857142857 241.25275453538117 C 332.40714285714284 241.25275453538117 334.8785714285715 241.5238232155318 339.8214285714286 241.5238232155318 C 344.76428571428573 241.5238232155318 347.2357142857143 241.5238232155318 352.17857142857144 241.5238232155318 C 357.12142857142857 241.5238232155318 359.5928571428572 241.5238232155318 364.53571428571433 241.5238232155318 C 369.47857142857146 241.5238232155318 371.95000000000005 241.5238232155318 376.89285714285717 241.5238232155318 C 381.8357142857143 241.5238232155318 384.30714285714294 241.5238232155318 389.25000000000006 241.5238232155318 C 394.1928571428572 241.5238232155318 396.66428571428577 240.96543627911458 401.6071428571429 240.4025662085877 C 406.55 239.83969613806082 409.0214285714286 240.4025662085877 413.9642857142857 238.7094728628974 C 418.90714285714284 237.0163795172071 421.3785714285715 224.38287559749074 426.3214285714286 215.0015577076838 C 431.2642857142857 205.62023981787695 433.7357142857143 202.01985053997052 438.67857142857144 191.80288341386287 C 443.6214285714286 181.5859162877551 446.09285714285727 177.27697207742256 451.03571428571433 163.9167220771453 C 455.97857142857146 150.55647207686786 458.45 139.41106573068248 463.39285714285717 125.00163341247608 C 468.3357142857143 110.59220109426987 470.80714285714294 103.23869642022882 475.75000000000006 91.86956048611384 C 480.69285714285724 80.50042455199873 483.16428571428577 79.24504130462304 488.1071428571429 68.15595374190087 C 493.05 57.06686617917869 495.5214285714286 44.75151244843278 500.4642857142858 36.42412267250293 C 505.40714285714296 28.096732896573084 512.8214285714286 26.51900486225162 512.8214285714286 26.51900486225162" stroke="#337AB7" stroke-width="2"  stroke-linejoin="round" stroke-linecap="round"></path></g><g class="highcharts-markers" visibility="visible"  transform="translate(71,59) scale(1 1)" clip-path="none"><path fill="#337AB7" d="M 512 24.51900486225162 C 514.664 24.51900486225162 514.664 28.51900486225162 512 28.51900486225162 C 509.336 28.51900486225162 509.336 24.51900486225162 512 24.51900486225162 Z"></path><path fill="#337AB7" d="M 500 34.42412267250293 C 502.664 34.42412267250293 502.664 38.42412267250293 500 38.42412267250293 C 497.336 38.42412267250293 497.336 34.42412267250293 500 34.42412267250293 Z"></path><path fill="#337AB7" d="M 488 66.15595374190087 C 490.664 66.15595374190087 490.664 70.15595374190087 488 70.15595374190087 C 485.336 70.15595374190087 485.336 66.15595374190087 488 66.15595374190087 Z"></path><path fill="#337AB7" d="M 475 89.86956048611384 C 477.664 89.86956048611384 477.664 93.86956048611384 475 93.86956048611384 C 472.336 93.86956048611384 472.336 89.86956048611384 475 89.86956048611384 Z"></path><path fill="#337AB7" d="M 463 123.00163341247608 C 465.664 123.00163341247608 465.664 127.00163341247608 463 127.00163341247608 C 460.336 127.00163341247608 460.336 123.00163341247608 463 123.00163341247608 Z"></path><path fill="#337AB7" d="M 451 161.9167220771453 C 453.664 161.9167220771453 453.664 165.9167220771453 451 165.9167220771453 C 448.336 165.9167220771453 448.336 161.9167220771453 451 161.9167220771453 Z"></path><path fill="#337AB7" d="M 438 189.80288341386287 C 440.664 189.80288341386287 440.664 193.80288341386287 438 193.80288341386287 C 435.336 193.80288341386287 435.336 189.80288341386287 438 189.80288341386287 Z"></path><path fill="#337AB7" d="M 426 213.0015577076838 C 428.664 213.0015577076838 428.664 217.0015577076838 426 217.0015577076838 C 423.336 217.0015577076838 423.336 213.0015577076838 426 213.0015577076838 Z"></path><path fill="#337AB7" d="M 413 236.7094728628974 C 415.664 236.7094728628974 415.664 240.7094728628974 413 240.7094728628974 C 410.336 240.7094728628974 410.336 236.7094728628974 413 236.7094728628974 Z"></path><path fill="#337AB7" d="M 401 238.4025662085877 C 403.664 238.4025662085877 403.664 242.4025662085877 401 242.4025662085877 C 398.336 242.4025662085877 398.336 238.4025662085877 401 238.4025662085877 Z"></path><path fill="#337AB7" d="M 389 239.5238232155318 C 391.664 239.5238232155318 391.664 243.5238232155318 389 243.5238232155318 C 386.336 243.5238232155318 386.336 239.5238232155318 389 239.5238232155318 Z"></path><path fill="#337AB7" d="M 376 239.5238232155318 C 378.664 239.5238232155318 378.664 243.5238232155318 376 243.5238232155318 C 373.336 243.5238232155318 373.336 239.5238232155318 376 239.5238232155318 Z"></path><path fill="#337AB7" d="M 364 239.5238232155318 C 366.664 239.5238232155318 366.664 243.5238232155318 364 243.5238232155318 C 361.336 243.5238232155318 361.336 239.5238232155318 364 239.5238232155318 Z"></path><path fill="#337AB7" d="M 352 239.5238232155318 C 354.664 239.5238232155318 354.664 243.5238232155318 352 243.5238232155318 C 349.336 243.5238232155318 349.336 239.5238232155318 352 239.5238232155318 Z"></path><path fill="#337AB7" d="M 339 239.5238232155318 C 341.664 239.5238232155318 341.664 243.5238232155318 339 243.5238232155318 C 336.336 243.5238232155318 336.336 239.5238232155318 339 239.5238232155318 Z"></path><path fill="#337AB7" d="M 327 239.25275453538117 C 329.664 239.25275453538117 329.664 243.25275453538117 327 243.25275453538117 C 324.336 243.25275453538117 324.336 239.25275453538117 327 239.25275453538117 Z"></path><path fill="#337AB7" d="M 315 239.72893131984935 C 317.664 239.72893131984935 317.664 243.72893131984935 315 243.72893131984935 C 312.336 243.72893131984935 312.336 239.72893131984935 315 239.72893131984935 Z"></path><path fill="#337AB7" d="M 302 239.72893131984935 C 304.664 239.72893131984935 304.664 243.72893131984935 302 243.72893131984935 C 299.336 243.72893131984935 299.336 239.72893131984935 302 239.72893131984935 Z"></path><path fill="#337AB7" d="M 290 239.72893131984935 C 292.664 239.72893131984935 292.664 243.72893131984935 290 243.72893131984935 C 287.336 243.72893131984935 287.336 239.72893131984935 290 239.72893131984935 Z"></path><path fill="#337AB7" d="M 278 239.72893131984935 C 280.664 239.72893131984935 280.664 243.72893131984935 278 243.72893131984935 C 275.336 243.72893131984935 275.336 239.72893131984935 278 239.72893131984935 Z"></path><path fill="#337AB7" d="M 265 239.72893131984935 C 267.664 239.72893131984935 267.664 243.72893131984935 265 243.72893131984935 C 262.336 243.72893131984935 262.336 239.72893131984935 265 239.72893131984935 Z"></path><path fill="#337AB7" d="M 253 239.72893131984935 C 255.664 239.72893131984935 255.664 243.72893131984935 253 243.72893131984935 C 250.336 243.72893131984935 250.336 239.72893131984935 253 239.72893131984935 Z"></path><path fill="#337AB7" d="M 240 240 C 242.664 240 242.664 244 240 244 C 237.336 244 237.336 240 240 240 Z"></path><path fill="#337AB7" d="M 228 240 C 230.664 240 230.664 244 228 244 C 225.336 244 225.336 240 228 240 Z"></path><path fill="#337AB7" d="M 216 240 C 218.664 240 218.664 244 216 244 C 213.336 244 213.336 240 216 240 Z"></path><path fill="#337AB7" d="M 203 240 C 205.664 240 205.664 244 203 244 C 200.336 244 200.336 240 203 240 Z"></path><path fill="#337AB7" d="M 191 240 C 193.664 240 193.664 244 191 244 C 188.336 244 188.336 240 191 240 Z"></path><path fill="#337AB7" d="M 179 240 C 181.664 240 181.664 244 179 244 C 176.336 244 176.336 240 179 240 Z"></path><path fill="#337AB7" d="M 166 239.61090273058656 C 168.664 239.61090273058656 168.664 243.61090273058656 166 243.61090273058656 C 163.336 243.61090273058656 163.336 239.61090273058656 166 239.61090273058656 Z"></path><path fill="#337AB7" d="M 154 239.61090273058656 C 156.664 239.61090273058656 156.664 243.61090273058656 154 243.61090273058656 C 151.336 243.61090273058656 151.336 239.61090273058656 154 239.61090273058656 Z"></path><path fill="#337AB7" d="M 142 239.61090273058656 C 144.664 239.61090273058656 144.664 243.61090273058656 142 243.61090273058656 C 139.336 243.61090273058656 139.336 239.61090273058656 142 239.61090273058656 Z"></path><path fill="#337AB7" d="M 129 239.0478714679849 C 131.664 239.0478714679849 131.664 243.0478714679849 129 243.0478714679849 C 126.336 243.0478714679849 126.336 239.0478714679849 129 239.0478714679849 Z"></path><path fill="#337AB7" d="M 117 239.0478714679849 C 119.664 239.0478714679849 119.664 243.0478714679849 117 243.0478714679849 C 114.336 243.0478714679849 114.336 239.0478714679849 117 239.0478714679849 Z"></path><path fill="#337AB7" d="M 105 239.0478714679849 C 107.664 239.0478714679849 107.664 243.0478714679849 105 243.0478714679849 C 102.336 243.0478714679849 102.336 239.0478714679849 105 239.0478714679849 Z"></path><path fill="#337AB7" d="M 92 239.0478714679849 C 94.664 239.0478714679849 94.664 243.0478714679849 92 243.0478714679849 C 89.336 243.0478714679849 89.336 239.0478714679849 92 239.0478714679849 Z"></path><path fill="#337AB7" d="M 80 239.43696873739833 C 82.664 239.43696873739833 82.664 243.43696873739833 80 243.43696873739833 C 77.336 243.43696873739833 77.336 239.43696873739833 80 239.43696873739833 Z"></path><path fill="#337AB7" d="M 67 239.43696873739833 C 69.664 239.43696873739833 69.664 243.43696873739833 67 243.43696873739833 C 64.336 243.43696873739833 64.336 239.43696873739833 67 239.43696873739833 Z"></path><path fill="#337AB7" d="M 55 239.43696873739833 C 57.664 239.43696873739833 57.664 243.43696873739833 55 243.43696873739833 C 52.336 243.43696873739833 52.336 239.43696873739833 55 239.43696873739833 Z"></path><path fill="#337AB7" d="M 43 240 C 45.664 240 45.664 244 43 244 C 40.336 244 40.336 240 43 240 Z"></path><path fill="#337AB7" d="M 30 240 C 32.664 240 32.664 244 30 244 C 27.336 244 27.336 240 30 240 Z"></path><path fill="#337AB7" d="M 18 240 C 20.664 240 20.664 244 18 244 C 15.336 244 15.336 240 18 240 Z"></path><path fill="#337AB7" d="M 6 240 C 8.664 240 8.664 244 6 244 C 3.336 244 3.336 240 6 240 Z"></path></g></g><text x="300" text-anchor="middle" class="highcharts-title"  style="color:#333333;font-size:18px;fill:#333333;width:536px;" y="24"><tspan style="font-weight:bold">Stress</tspan><tspan dx="0"> – Verlaufskurve</tspan></text><text x="300" text-anchor="middle" class="highcharts-subtitle"  style="color:#555555;fill:#555555;width:536px;" y="44"><tspan>Basis: Referenz- und Zeitungskorpora (aggregiert, frei)</tspan></text><g class="highcharts-legend"  transform="translate(236,360)"><g ><g><g class="highcharts-legend-item"  transform="translate(8,3)"><path fill="none" d="M 0 11 L 16 11" stroke="#337AB7" stroke-width="2"></path><path fill="#337AB7" d="M 8 9 C 10.664 9 10.664 13 8 13 C 5.336 13 5.336 9 8 9 Z"></path><text x="21" style="color:#333333;font-size:12px;font-weight:bold;cursor:pointer;fill:#333333;" text-anchor="start"  y="15"><tspan>Stress: Gesamt</tspan></text></g></g></g></g><g class="highcharts-axis-labels highcharts-xaxis-labels" ><text x="81.17857142857143" style="color:#606060;cursor:default;font-size:12px;font-family:verdana, sans-serif;margin:10px;padding:10px;fill:#606060;width:400px;text-overflow:ellipsis;" text-anchor="end" transform="translate(0,0) rotate(-90 81.17857142857143 313)" y="313" opacity="1"><tspan>1600</tspan></text><text x="105.89285714285714" style="color:#606060;cursor:default;font-size:12px;font-family:verdana, sans-serif;margin:10px;padding:10px;fill:#606060;width:400px;text-overflow:ellipsis;" text-anchor="end" transform="translate(0,0) rotate(-90 105.89285714285714 313)" y="313" opacity="1"><tspan>1620</tspan></text><text x="130.60714285714286" style="color:#606060;cursor:default;font-size:12px;font-family:verdana, sans-serif;margin:10px;padding:10px;fill:#606060;width:400px;text-overflow:ellipsis;" text-anchor="end" transform="translate(0,0) rotate(-90 130.60714285714286 313)" y="313" opacity="1"><tspan>1640</tspan></text><text x="155.32142857142856" style="color:#606060;cursor:default;font-size:12px;font-family:verdana, sans-serif;margin:10px;padding:10px;fill:#606060;width:400px;text-overflow:ellipsis;" text-anchor="end" transform="translate(0,0) rotate(-90 155.32142857142856 313)" y="313" opacity="1"><tspan>1660</tspan></text><text x="180.03571428571428" style="color:#606060;cursor:default;font-size:12px;font-family:verdana, sans-serif;margin:10px;padding:10px;fill:#606060;width:400px;text-overflow:ellipsis;" text-anchor="end" transform="translate(0,0) rotate(-90 180.03571428571428 313)" y="313" opacity="1"><tspan>1680</tspan></text><text x="204.75" style="color:#606060;cursor:default;font-size:12px;font-family:verdana, sans-serif;margin:10px;padding:10px;fill:#606060;width:400px;text-overflow:ellipsis;" text-anchor="end" transform="translate(0,0) rotate(-90 204.75 313)" y="313" opacity="1"><tspan>1700</tspan></text><text x="229.4642857142857" style="color:#606060;cursor:default;font-size:12px;font-family:verdana, sans-serif;margin:10px;padding:10px;fill:#606060;width:400px;text-overflow:ellipsis;" text-anchor="end" transform="translate(0,0) rotate(-90 229.4642857142857 313)" y="313" opacity="1"><tspan>1720</tspan></text><text x="254.17857142857142" style="color:#606060;cursor:default;font-size:12px;font-family:verdana, sans-serif;margin:10px;padding:10px;fill:#606060;width:400px;text-overflow:ellipsis;" text-anchor="end" transform="translate(0,0) rotate(-90 254.17857142857142 313)" y="313" opacity="1"><tspan>1740</tspan></text><text x="278.8928571428571" style="color:#606060;cursor:default;font-size:12px;font-family:verdana, sans-serif;margin:10px;padding:10px;fill:#606060;width:400px;text-overflow:ellipsis;" text-anchor="end" transform="translate(0,0) rotate(-90 278.8928571428571 313)" y="313" opacity="1"><tspan>1760</tspan></text><text x="303.6071428571429" style="color:#606060;cursor:default;font-size:12px;font-family:verdana, sans-serif;margin:10px;padding:10px;fill:#606060;width:400px;text-overflow:ellipsis;" text-anchor="end" transform="translate(0,0) rotate(-90 303.6071428571429 313)" y="313" opacity="1"><tspan>1780</tspan></text><text x="328.32142857142856" style="color:#606060;cursor:default;font-size:12px;font-family:verdana, sans-serif;margin:10px;padding:10px;fill:#606060;width:400px;text-overflow:ellipsis;" text-anchor="end" transform="translate(0,0) rotate(-90 328.32142857142856 313)" y="313" opacity="1"><tspan>1800</tspan></text><text x="353.03571428571433" style="color:#606060;cursor:default;font-size:12px;font-family:verdana, sans-serif;margin:10px;padding:10px;fill:#606060;width:400px;text-overflow:ellipsis;" text-anchor="end" transform="translate(0,0) rotate(-90 353.03571428571433 313)" y="313" opacity="1"><tspan>1820</tspan></text><text x="377.75" style="color:#606060;cursor:default;font-size:12px;font-family:verdana, sans-serif;margin:10px;padding:10px;fill:#606060;width:400px;text-overflow:ellipsis;" text-anchor="end" transform="translate(0,0) rotate(-90 377.75 313)" y="313" opacity="1"><tspan>1840</tspan></text><text x="402.4642857142857" style="color:#606060;cursor:default;font-size:12px;font-family:verdana, sans-serif;margin:10px;padding:10px;fill:#606060;width:400px;text-overflow:ellipsis;" text-anchor="end" transform="translate(0,0) rotate(-90 402.4642857142857 313)" y="313" opacity="1"><tspan>1860</tspan></text><text x="427.17857142857144" style="color:#606060;cursor:default;font-size:12px;font-family:verdana, sans-serif;margin:10px;padding:10px;fill:#606060;width:400px;text-overflow:ellipsis;" text-anchor="end" transform="translate(0,0) rotate(-90 427.17857142857144 313)" y="313" opacity="1"><tspan>1880</tspan></text><text x="451.89285714285717" style="color:#606060;cursor:default;font-size:12px;font-family:verdana, sans-serif;margin:10px;padding:10px;fill:#606060;width:400px;text-overflow:ellipsis;" text-anchor="end" transform="translate(0,0) rotate(-90 451.89285714285717 313)" y="313" opacity="1"><tspan>1900</tspan></text><text x="476.6071428571429" style="color:#606060;cursor:default;font-size:12px;font-family:verdana, sans-serif;margin:10px;padding:10px;fill:#606060;width:400px;text-overflow:ellipsis;" text-anchor="end" transform="translate(0,0) rotate(-90 476.6071428571429 313)" y="313" opacity="1"><tspan>1920</tspan></text><text x="501.3214285714286" style="color:#606060;cursor:default;font-size:12px;font-family:verdana, sans-serif;margin:10px;padding:10px;fill:#606060;width:400px;text-overflow:ellipsis;" text-anchor="end" transform="translate(0,0) rotate(-90 501.3214285714286 313)" y="313" opacity="1"><tspan>1940</tspan></text><text x="526.0357142857143" style="color:#606060;cursor:default;font-size:12px;font-family:verdana, sans-serif;margin:10px;padding:10px;fill:#606060;width:400px;text-overflow:ellipsis;" text-anchor="end" transform="translate(0,0) rotate(-90 526.0357142857143 313)" y="313" opacity="1"><tspan>1960</tspan></text><text x="550.75" style="color:#606060;cursor:default;font-size:12px;font-family:verdana, sans-serif;margin:10px;padding:10px;fill:#606060;width:400px;text-overflow:ellipsis;" text-anchor="end" transform="translate(0,0) rotate(-90 550.75 313)" y="313" opacity="1"><tspan>1980</tspan></text><text x="575.4642857142858" style="color:#606060;cursor:default;font-size:12px;font-family:verdana, sans-serif;margin:10px;padding:10px;fill:#606060;width:400px;text-overflow:ellipsis;" text-anchor="end" transform="translate(0,0) rotate(-90 575.4642857142858 313)" y="313" opacity="1"><tspan>2000</tspan></text></g><g class="highcharts-axis-labels highcharts-yaxis-labels" ><text x="56" style="color:#606060;cursor:default;font-size:11px;fill:#606060;width:188px;text-overflow:clip;" text-anchor="end" transform="translate(0,0)" y="306" opacity="1">0</text><text x="56" style="color:#606060;cursor:default;font-size:11px;fill:#606060;width:188px;text-overflow:clip;" text-anchor="end" transform="translate(0,0)" y="258" opacity="1">2.5</text><text x="56" style="color:#606060;cursor:default;font-size:11px;fill:#606060;width:188px;text-overflow:clip;" text-anchor="end" transform="translate(0,0)" y="209" opacity="1">5</text><text x="56" style="color:#606060;cursor:default;font-size:11px;fill:#606060;width:188px;text-overflow:clip;" text-anchor="end" transform="translate(0,0)" y="161" opacity="1">7.5</text><text x="56" style="color:#606060;cursor:default;font-size:11px;fill:#606060;width:188px;text-overflow:clip;" text-anchor="end" transform="translate(0,0)" y="112" opacity="1">10</text><text x="56" style="color:#606060;cursor:default;font-size:11px;fill:#606060;width:188px;text-overflow:clip;" text-anchor="end" transform="translate(0,0)" y="64" opacity="1">12.5</text></g><g class="highcharts-tooltip"  style="cursor:default;padding:0;white-space:nowrap;" transform="translate(0,-9999)"><path fill="none" d="M 3.5 0.5 L 13.5 0.5 C 16.5 0.5 16.5 0.5 16.5 3.5 L 16.5 13.5 C 16.5 16.5 16.5 16.5 13.5 16.5 L 3.5 16.5 C 0.5 16.5 0.5 16.5 0.5 13.5 L 0.5 3.5 C 0.5 0.5 0.5 0.5 3.5 0.5"  stroke="black" stroke-opacity="0.049999999999999996" stroke-width="5" transform="translate(1, 1)"></path><path fill="none" d="M 3.5 0.5 L 13.5 0.5 C 16.5 0.5 16.5 0.5 16.5 3.5 L 16.5 13.5 C 16.5 16.5 16.5 16.5 13.5 16.5 L 3.5 16.5 C 0.5 16.5 0.5 16.5 0.5 13.5 L 0.5 3.5 C 0.5 0.5 0.5 0.5 3.5 0.5"  stroke="black" stroke-opacity="0.09999999999999999" stroke-width="3" transform="translate(1, 1)"></path><path fill="none" d="M 3.5 0.5 L 13.5 0.5 C 16.5 0.5 16.5 0.5 16.5 3.5 L 16.5 13.5 C 16.5 16.5 16.5 16.5 13.5 16.5 L 3.5 16.5 C 0.5 16.5 0.5 16.5 0.5 13.5 L 0.5 3.5 C 0.5 0.5 0.5 0.5 3.5 0.5"  stroke="black" stroke-opacity="0.15" stroke-width="1" transform="translate(1, 1)"></path><path fill="rgb(249, 249, 249)" fill-opacity=" .85" d="M 3.5 0.5 L 13.5 0.5 C 16.5 0.5 16.5 0.5 16.5 3.5 L 16.5 13.5 C 16.5 16.5 16.5 16.5 13.5 16.5 L 3.5 16.5 C 0.5 16.5 0.5 16.5 0.5 13.5 L 0.5 3.5 C 0.5 0.5 0.5 0.5 3.5 0.5"></path><text x="8"  style="font-size:12px;color:#333333;fill:#333333;" y="20"></text></g></svg>